<svg width="17" height="17" viewBox="0 0 17 17" fill="none" xmlns="http://www.w3.org/2000/svg">
<path d="M1.59431 1.75005C1.59431 1.48484 1.69967 1.23048 1.8872 1.04295C2.07474 0.85541 2.32909 0.750053 2.59431 0.750053C2.85953 0.750053 3.11388 0.85541 3.30142 1.04295C3.48895 1.23048 3.59431 1.48484 3.59431 1.75005C3.59431 2.01527 3.48895 2.26962 3.30142 2.45716C3.11388 2.6447 2.85953 2.75005 2.59431 2.75005C2.32909 2.75005 2.07474 2.6447 1.8872 2.45716C1.69967 2.26962 1.59431 2.01527 1.59431 1.75005ZM14.5943 5.75005C14.5943 5.48484 14.6997 5.23048 14.8872 5.04295C15.0747 4.85541 15.3291 4.75005 15.5943 4.75005C15.8595 4.75005 16.1139 4.85541 16.3014 5.04295C16.489 5.23048 16.5943 5.48484 16.5943 5.75005C16.5943 6.01527 16.489 6.26962 16.3014 6.45716C16.1139 6.6447 15.8595 6.75005 15.5943 6.75005C15.3291 6.75005 15.0747 6.6447 14.8872 6.45716C14.6997 6.26962 14.5943 6.01527 14.5943 5.75005ZM15.5943 13.7501C15.8595 13.7501 16.1139 13.8554 16.3014 14.0429C16.489 14.2305 16.5943 14.4848 16.5943 14.7501C16.5943 15.0153 16.489 15.2696 16.3014 15.4572C16.1139 15.6447 15.8595 15.7501 15.5943 15.7501C15.3291 15.7501 15.0747 15.6447 14.8872 15.4572C14.6997 15.2696 14.5943 15.0153 14.5943 14.7501C14.5943 14.4848 14.6997 14.2305 14.8872 14.0429C15.0747 13.8554 15.3291 13.7501 15.5943 13.7501ZM5.81306 5.5313C5.51931 5.23755 5.51931 4.76255 5.81306 4.47193L6.07244 4.21255C6.59431 3.69068 6.92244 3.0063 7.00369 2.27193L7.09744 1.41568C7.14431 1.0063 7.51619 0.709428 7.92869 0.753178C8.34119 0.796928 8.63806 1.1688 8.59119 1.5813L8.49744 2.43755C8.37869 3.50943 7.89744 4.50943 7.13494 5.27193L6.87556 5.5313C6.58181 5.82505 6.10681 5.82505 5.81619 5.5313H5.81306ZM11.8131 10.4688L12.0693 10.2094C12.8318 9.44693 13.8318 8.96568 14.9037 8.84693L15.7599 8.75318C16.1724 8.7063 16.5412 9.00318 16.5881 9.41568C16.6349 9.82818 16.3381 10.1969 15.9256 10.2438L15.0693 10.3376C14.3349 10.4188 13.6506 10.7469 13.1287 11.2688L12.8756 11.5313C12.5818 11.8251 12.1068 11.8251 11.8162 11.5313C11.5256 11.2376 11.5224 10.7626 11.8162 10.4719L11.8131 10.4688ZM16.4162 1.01568C16.6849 1.3313 16.6443 1.8063 16.3287 2.07193L16.0162 2.33755C15.5537 2.72818 14.9631 2.93443 14.3599 2.9188C13.8412 2.9063 13.4037 3.3063 13.3724 3.82505L13.3162 4.76255C13.2381 6.09068 12.1193 7.11568 10.7912 7.0813C10.5537 7.07505 10.3224 7.1563 10.1443 7.30943L9.83181 7.57505C9.51619 7.8438 9.04119 7.80318 8.77556 7.48755C8.50994 7.17193 8.54744 6.69693 8.86306 6.4313L9.17556 6.16568C9.63806 5.77505 10.2287 5.5688 10.8318 5.58443C11.3506 5.59693 11.7881 5.19693 11.8193 4.67818L11.8756 3.74068C11.9537 2.41255 13.0724 1.38755 14.4006 1.42193C14.6381 1.42818 14.8693 1.34693 15.0474 1.1938L15.3599 0.928178C15.6756 0.659428 16.1506 0.700053 16.4162 1.01568ZM5.30056 7.0438L10.3006 12.0438C10.5412 12.2844 10.6412 12.6313 10.5693 12.9626C10.4974 13.2938 10.2599 13.5688 9.94431 13.6876L8.70369 14.1532L3.19119 8.64068L3.65681 7.40005C3.77556 7.0813 4.05056 6.84693 4.38181 6.77505C4.71306 6.70318 5.05994 6.8063 5.30056 7.0438ZM2.10056 11.5501L2.80681 9.6688L7.67556 14.5376L5.79431 15.2438L2.10056 11.5501ZM1.71619 12.5782L4.76619 15.6282L1.94431 16.6876C1.57869 16.8251 1.16306 16.7344 0.884936 16.4594C0.606811 16.1844 0.519311 15.7657 0.656811 15.4001L1.71306 12.5782H1.71619Z" fill="#616D8A"/>
</svg>
