<svg width="29" height="28" viewBox="0 0 29 28" fill="none" xmlns="http://www.w3.org/2000/svg">
<g id="Included in this plan! &#226;&#134;&#146; Img">
<path id="Vector" d="M14.3945 28C18.1076 28 21.6685 26.525 24.294 23.8995C26.9195 21.274 28.3945 17.713 28.3945 14C28.3945 10.287 26.9195 6.72601 24.294 4.10051C21.6685 1.475 18.1076 0 14.3945 0C10.6815 0 7.12055 1.475 4.49504 4.10051C1.86953 6.72601 0.394531 10.287 0.394531 14C0.394531 17.713 1.86953 21.274 4.49504 23.8995C7.12055 26.525 10.6815 28 14.3945 28ZM20.5742 11.4297L13.5742 18.4297C13.0602 18.9437 12.2289 18.9437 11.7203 18.4297L8.22031 14.9297C7.70625 14.4156 7.70625 13.5844 8.22031 13.0758C8.73438 12.5672 9.56562 12.5617 10.0742 13.0758L12.6445 15.6461L18.7148 9.57031C19.2289 9.05625 20.0602 9.05625 20.5687 9.57031C21.0773 10.0844 21.0828 10.9156 20.5687 11.4242L20.5742 11.4297Z" fill="#0CA678"/>
</g>
</svg>
