<svg width="15" height="17" viewBox="0 0 15 17" fill="none" xmlns="http://www.w3.org/2000/svg">
<g id="Img">
<path id="Vector" d="M4.18457 0.75C4.7377 0.75 5.18457 1.19687 5.18457 1.75V2.75H9.18457V1.75C9.18457 1.19687 9.63145 0.75 10.1846 0.75C10.7377 0.75 11.1846 1.19687 11.1846 1.75V2.75H12.6846C13.5127 2.75 14.1846 3.42188 14.1846 4.25V5.75H0.18457V4.25C0.18457 3.42188 0.856445 2.75 1.68457 2.75H3.18457V1.75C3.18457 1.19687 3.63145 0.75 4.18457 0.75ZM0.18457 6.75H14.1846V15.25C14.1846 16.0781 13.5127 16.75 12.6846 16.75H1.68457C0.856445 16.75 0.18457 16.0781 0.18457 15.25V6.75ZM2.18457 9.25V10.25C2.18457 10.525 2.40957 10.75 2.68457 10.75H3.68457C3.95957 10.75 4.18457 10.525 4.18457 10.25V9.25C4.18457 8.975 3.95957 8.75 3.68457 8.75H2.68457C2.40957 8.75 2.18457 8.975 2.18457 9.25ZM6.18457 9.25V10.25C6.18457 10.525 6.40957 10.75 6.68457 10.75H7.68457C7.95957 10.75 8.18457 10.525 8.18457 10.25V9.25C8.18457 8.975 7.95957 8.75 7.68457 8.75H6.68457C6.40957 8.75 6.18457 8.975 6.18457 9.25ZM10.6846 8.75C10.4096 8.75 10.1846 8.975 10.1846 9.25V10.25C10.1846 10.525 10.4096 10.75 10.6846 10.75H11.6846C11.9596 10.75 12.1846 10.525 12.1846 10.25V9.25C12.1846 8.975 11.9596 8.75 11.6846 8.75H10.6846ZM2.18457 13.25V14.25C2.18457 14.525 2.40957 14.75 2.68457 14.75H3.68457C3.95957 14.75 4.18457 14.525 4.18457 14.25V13.25C4.18457 12.975 3.95957 12.75 3.68457 12.75H2.68457C2.40957 12.75 2.18457 12.975 2.18457 13.25ZM6.68457 12.75C6.40957 12.75 6.18457 12.975 6.18457 13.25V14.25C6.18457 14.525 6.40957 14.75 6.68457 14.75H7.68457C7.95957 14.75 8.18457 14.525 8.18457 14.25V13.25C8.18457 12.975 7.95957 12.75 7.68457 12.75H6.68457ZM10.1846 13.25V14.25C10.1846 14.525 10.4096 14.75 10.6846 14.75H11.6846C11.9596 14.75 12.1846 14.525 12.1846 14.25V13.25C12.1846 12.975 11.9596 12.75 11.6846 12.75H10.6846C10.4096 12.75 10.1846 12.975 10.1846 13.25Z" fill="#616D8A"/>
</g>
</svg>
