<svg width="40" height="33" viewBox="0 0 40 33" fill="none" xmlns="http://www.w3.org/2000/svg">
<path d="M23.26 3.375C23.26 4.68322 22.487 5.81092 21.373 6.32628L28 12.125L34.5244 10.8201C34.1936 10.3378 34 9.75404 34 9.125C34 7.46814 35.3432 6.125 37 6.125C38.6568 6.125 40 7.46814 40 9.125C40 10.7481 38.711 12.0702 37.1008 12.1233L30.0614 27.7664C29.4154 29.2018 27.9878 30.125 26.4136 30.125H13.5863C12.0123 30.125 10.5846 29.2018 9.93866 27.7664L2.89926 12.1233C1.28904 12.0702 0 10.7481 0 9.125C0 7.46814 1.34315 6.125 3 6.125C4.65686 6.125 6 7.46814 6 9.125C6 9.75404 5.8064 10.3378 5.47554 10.8201L12 12.125L18.634 6.32022C17.5269 5.8021 16.76 4.67812 16.76 3.375C16.76 1.58007 18.2151 0.125 20.01 0.125C21.805 0.125 23.26 1.58007 23.26 3.375Z" fill="#193154"/>
</svg>
