<svg width="25" height="26" viewBox="0 0 25 26" fill="none" xmlns="http://www.w3.org/2000/svg">
<g id="icon-facebook.svg" clip-path="url(#clip0_13_413)">
<path id="Vector" fill-rule="evenodd" clip-rule="evenodd" d="M11.52 3.1617C10.8387 3.84295 10.4838 4.8942 10.4838 6.40045V9.3542H8.125V11.8654H10.4838V23.3042H13.8225V11.8642H17.22L17.4325 9.3517H13.8225V6.91295C13.8225 6.65545 13.8288 6.3817 13.8688 6.1267C13.9088 5.86795 13.9913 5.58795 14.1725 5.33545C14.56 4.79795 15.2175 4.63045 16.01 4.63045C16.425 4.63045 16.9975 4.68045 17.5312 4.7567L17.9113 2.3692C16.95 2.1792 16.15 2.0542 15.1175 2.0542C13.325 2.0542 12.2012 2.4792 11.52 3.1617ZM10.6362 2.27795C11.6425 1.27045 13.1487 0.804199 15.1175 0.804199C16.4925 0.804199 17.505 1.00795 18.7487 1.26295L19.3337 1.38295L18.565 6.21795L17.9275 6.0892C17.2954 5.96549 16.6539 5.89525 16.01 5.8792C15.335 5.8792 15.2112 6.03045 15.185 6.0667C15.139 6.14357 15.1112 6.22994 15.1038 6.3192C15.0787 6.51565 15.0682 6.7137 15.0725 6.9117V8.10295H18.7937L18.3687 13.1142H15.0725V24.5542H9.23375V13.1142H6.875V8.1017H9.23375V6.4017C9.23375 4.72045 9.62875 3.28545 10.6362 2.27795Z" fill="#E7F3E2"/>
</g>
<defs>
<clipPath id="clip0_13_413">
<rect width="25" height="25" fill="white" transform="translate(0 0.179199)"/>
</clipPath>
</defs>
</svg>
