<svg version="1.2" xmlns="http://www.w3.org/2000/svg" viewBox="0 0 384 512" width="384" height="512">
	<title>mic-svg</title>
	<style>
		.s0 { fill: #e7f3e2 } 
	</style>
	<path class="s0" d="m192 0c-53 0-96 43-96 96v160c0 53 43 96 96 96 53 0 96-43 96-96v-160c0-53-43-96-96-96zm-128 216c0-13.3-10.7-24-24-24-13.3 0-24 10.7-24 24v40c0 89.1 66.2 162.7 152 174.4v33.6h-48c-13.3 0-24 10.7-24 24 0 13.3 10.7 24 24 24h72 72c13.3 0 24-10.7 24-24 0-13.3-10.7-24-24-24h-48v-33.6c85.8-11.7 152-85.3 152-174.4v-40c0-13.3-10.7-24-24-24-13.3 0-24 10.7-24 24v40c0 70.7-57.3 128-128 128-70.7 0-128-57.3-128-128z"/>
</svg>